<svg width="32" height="32" viewBox="0 0 32 32" xmlns="http://www.w3.org/2000/svg"><title>Artboard 2 Copy 2</title><g fill="none" fill-rule="evenodd"><circle fill="#AD3535" cx="16" cy="16" r="16"/><path d="M16.265 19.26l4.56-2.655s.284-.207.284.217v2.73c0 1.36-2.61 2.83-5.827 2.83-3.218 0-5.826-1.47-5.826-2.83v-.182-2.402c0-.53.4-.295.4-.295l4.444 2.587c.274.16.622.246.983.246.36 0 .71-.087.982-.246zm6.057-5.257l-6.448 3.862c-.325.195-.857.195-1.182 0l-6.448-3.862c-.325-.195-.325-.513 0-.708l6.448-3.15c.325-.194.857-.194 1.182 0l6.448 3.15c.325.195.325.513 0 .708zm.543 6.015c0 .06.045.09.067.104.216.142.362.406.362.71 0 .453-.326.82-.728.82-.402 0-.728-.367-.728-.82 0-.303.144-.566.36-.708.022-.015.068-.045.068-.106V15.7s-.02-.207.074-.3c.082-.08.315-.227.41-.287.118-.074.115.15.115.15v4.755z" fill="#FFF" fill-rule="nonzero"/></g></svg>
